<svg width="96" height="22" viewBox="0 0 96 22" fill="none" xmlns="http://www.w3.org/2000/svg">
<path d="M40.0404 8.88286C40.275 9.84949 40.8624 10.3821 41.6167 10.3821H42.5501C43.3257 10.3821 43.8693 9.88367 44.1225 8.88417L46.3021 0.466224H48.7534L46.4479 9.30105C45.8818 11.4841 44.7084 12.5651 42.8855 12.5651H41.2813C39.4583 12.5651 38.2757 11.4762 37.7096 9.29322L40.0404 8.88286ZM12.8294 3.7415C12.8294 3.44812 12.7047 3.19705 12.4343 2.96824C12.1625 2.73674 11.892 2.63161 11.5791 2.63161H2.5783V10.4393H11.5791C12.413 10.4393 12.8293 10.0845 12.8293 9.35045L12.8294 3.7415ZM14.1008 11.7162C13.4127 12.3239 12.5576 12.6368 11.5791 12.6368H0.307251V0.455078H11.5791C12.4966 0.455078 13.3079 0.769335 14.0371 1.41772C14.7663 2.06737 15.1203 2.84198 15.1203 3.7415V9.35041C15.1203 10.3144 14.7875 11.1087 14.1008 11.7162ZM0.421273 15.8721H3.99294V16.4165H2.50407V20.1146H1.88624V16.4166H0.421311L0.421273 15.8721ZM4.47221 15.8721H5.02774V17.679C5.26109 17.3961 5.5514 17.2555 5.89745 17.2555C6.0857 17.2555 6.2541 17.3014 6.4039 17.395C6.55235 17.4882 6.66378 17.6172 6.73668 17.7829C6.80959 17.9473 6.84541 18.1919 6.84541 18.5168V20.1146H6.28984V18.38C6.28984 18.175 6.23813 18.0106 6.13737 17.8855C6.0353 17.7606 5.9014 17.6976 5.73567 17.6976C5.6124 17.6976 5.49702 17.7274 5.3883 17.7923C5.27958 17.8553 5.15894 17.9593 5.02771 18.1054V20.1149H4.47218L4.47221 15.8721ZM8.02813 18.4281H9.4454C9.43225 18.207 9.36453 18.0362 9.24652 17.9165C9.12852 17.7969 8.96944 17.7365 8.76924 17.7365C8.56904 17.7365 8.40466 17.7969 8.27734 17.9165C8.15005 18.0362 8.06654 18.2073 8.0281 18.4281H8.02813ZM9.99424 18.7621H8.0122C8.02686 19.0305 8.11694 19.2434 8.28399 19.4026C8.44972 19.5602 8.66582 19.6408 8.92964 19.6408C9.29688 19.6408 9.63628 19.5263 9.94652 19.2989V19.8381C9.77552 19.9511 9.6058 20.0316 9.43744 20.0801C9.26907 20.1285 9.07019 20.1524 8.84478 20.1524C8.53323 20.1524 8.28267 20.0894 8.09044 19.9615C7.89821 19.8325 7.74443 19.6618 7.62906 19.4447C7.51372 19.2288 7.45671 18.9791 7.45671 18.6951C7.45671 18.269 7.57734 17.9218 7.81997 17.6548C8.06391 17.3879 8.37813 17.255 8.76657 17.255C9.14043 17.255 9.4374 17.3851 9.66014 17.6456C9.88289 17.9062 9.99424 18.2545 9.99424 18.6924V18.7621ZM14.5222 16.3848C14.0423 16.3848 13.6459 16.5388 13.3317 16.8464C13.0188 17.154 12.8623 17.5421 12.8623 18.0103C12.8623 18.4653 13.0201 18.8441 13.3356 19.1479C13.6499 19.4502 14.0463 19.6016 14.5222 19.6016C14.9916 19.6016 15.388 19.4465 15.7088 19.136C16.031 18.827 16.1914 18.4456 16.1914 17.9919C16.1914 17.5276 16.0336 17.1436 15.7181 16.8399C15.4026 16.536 15.0035 16.3848 14.5222 16.3848V16.3848ZM16.7243 20.3775L16.1105 20.9759C15.9183 20.9684 15.718 20.9326 15.5099 20.8745C15.3017 20.8167 15.0896 20.7365 14.8749 20.6351C14.6601 20.5337 14.3737 20.3589 14.0158 20.1144C13.4974 20.0212 13.0691 19.7762 12.7324 19.3792C12.3956 18.9821 12.2286 18.5244 12.2286 18.0063C12.2286 17.3724 12.4447 16.8476 12.8782 16.4321C13.3117 16.0178 13.8606 15.81 14.5248 15.81C15.1851 15.81 15.7326 16.0166 16.1702 16.4281C16.6077 16.8397 16.8251 17.3579 16.8251 17.9812C16.8251 18.506 16.6607 18.9663 16.3292 19.3634C15.9991 19.7606 15.5709 20.0105 15.0472 20.1144L15.209 20.1747C15.7114 20.3667 16.0747 20.4625 16.2961 20.4625C16.4181 20.4625 16.5613 20.4364 16.7243 20.3772V20.3775ZM19.3276 20.1139V19.7561C19.2082 19.8836 19.073 19.9835 18.9192 20.0547C18.7667 20.1244 18.6143 20.1598 18.4618 20.1598C18.2829 20.1598 18.1185 20.1166 17.9673 20.0282C17.8175 19.9402 17.7035 19.8206 17.6252 19.6692C17.5483 19.5194 17.5099 19.2681 17.5099 18.9183V17.3165H18.0667V18.9118C18.0667 19.2063 18.1092 19.4115 18.1953 19.5272C18.2802 19.6443 18.43 19.7021 18.6448 19.7021C18.9126 19.7021 19.1406 19.5731 19.3276 19.3154V17.3165H19.883V20.1137L19.3276 20.1139ZM21.9306 19.5563V18.7239L21.5581 18.8674C21.3685 18.9424 21.2346 19.0173 21.155 19.0937C21.0769 19.1701 21.0384 19.2648 21.0384 19.3793C21.0384 19.4948 21.0756 19.5895 21.1497 19.6633C21.224 19.7356 21.3194 19.7725 21.4388 19.7725C21.6151 19.7725 21.7795 19.7002 21.9306 19.5567L21.9306 19.5563ZM22.4795 18.4257V19.6145C22.4795 19.7092 22.5115 19.7566 22.5776 19.7566C22.6453 19.7566 22.75 19.7081 22.8945 19.6093V19.9485C22.7686 20.0276 22.6664 20.0813 22.5909 20.1103C22.514 20.1402 22.4344 20.1536 22.3509 20.1536C22.1136 20.1536 21.9731 20.0615 21.9306 19.8788C21.6933 20.0615 21.4401 20.1536 21.171 20.1536C20.9734 20.1536 20.8103 20.0891 20.6791 19.9601C20.5479 19.8311 20.4816 19.6693 20.4816 19.4748C20.4816 19.2985 20.5452 19.1408 20.6725 19.0014C20.8011 18.8635 20.9814 18.7528 21.2174 18.6715L21.9306 18.4281V18.2782C21.9306 17.9375 21.7609 17.7679 21.4229 17.7679C21.1193 17.7679 20.8236 17.923 20.5359 18.2335V17.6325C20.752 17.3813 21.0636 17.2551 21.4693 17.2551C21.7729 17.2551 22.0168 17.3341 22.2011 17.4918C22.2621 17.5432 22.3165 17.61 22.3655 17.6942C22.4145 17.7785 22.4464 17.8627 22.4583 17.9466C22.4715 18.0308 22.4794 18.19 22.4794 18.4253L22.4795 18.4257ZM23.9293 17.3171V17.659C24.1785 17.3895 24.4609 17.2553 24.7778 17.2553C24.9528 17.2553 25.1171 17.3 25.2683 17.3906C25.4194 17.4812 25.5334 17.6049 25.613 17.7626C25.6912 17.9192 25.731 18.169 25.731 18.5109V20.114H25.1742V18.5135C25.1742 18.2254 25.1304 18.0204 25.0429 17.8981C24.9541 17.7743 24.8069 17.7128 24.6014 17.7128C24.3376 17.7128 24.1135 17.8429 23.9292 18.1021V20.1142H23.3578V17.3169L23.9293 17.3171ZM26.0985 17.7594L27.1485 16.735V17.3175H28.0408V17.8146H27.1485V19.1837C27.1485 19.5031 27.2811 19.6637 27.5489 19.6637C27.7491 19.6637 27.9599 19.5992 28.1826 19.4691V19.9819C27.9679 20.1016 27.7345 20.1609 27.4813 20.1609C27.2268 20.1609 27.0146 20.0874 26.8463 19.9387C26.7948 19.8955 26.7501 19.845 26.7137 19.7888C26.6791 19.7322 26.65 19.6599 26.6275 19.5693C26.6038 19.4798 26.5918 19.3076 26.5918 19.0551V17.8149H26.0986L26.0985 17.7594ZM30.3963 20.1139V19.7561C30.277 19.8836 30.1418 19.9835 29.988 20.0547C29.8355 20.1244 29.683 20.1598 29.5306 20.1598C29.3516 20.1598 29.1872 20.1166 29.036 20.0282C28.8849 19.9402 28.7709 19.8206 28.694 19.6692C28.6171 19.5194 28.5786 19.2681 28.5786 18.9183V17.3165H29.1355V18.9118C29.1355 19.2063 29.1779 19.4115 29.2641 19.5272C29.349 19.6443 29.4987 19.7021 29.7135 19.7021C29.9813 19.7021 30.2094 19.5731 30.3963 19.3154V17.3165H30.9518V20.1137L30.3963 20.1139ZM34.0281 18.0842V20.1134H33.4646V18.5497C33.4646 18.2381 33.4221 18.0211 33.3387 17.8975C33.2551 17.7752 33.1093 17.7133 32.9011 17.7133C32.7858 17.7133 32.6784 17.7394 32.5816 17.795C32.4849 17.8501 32.3748 17.9463 32.2502 18.0842V20.1135H31.6947V17.3176H32.2502V17.6859C32.5339 17.3992 32.8123 17.2545 33.0841 17.2545C33.4407 17.2545 33.7178 17.4267 33.914 17.7687C34.211 17.4268 34.5213 17.2545 34.8447 17.2545C35.1179 17.2545 35.342 17.3544 35.5183 17.5531C35.6946 17.7518 35.7821 18.0555 35.7821 18.4631V20.1136H35.2266V18.4513C35.2266 18.2187 35.1788 18.0397 35.0834 17.9147C34.9879 17.791 34.85 17.7295 34.6711 17.7295C34.4417 17.7295 34.2269 17.848 34.0281 18.0844V18.0842ZM42.065 19.1274V19.7954C41.6155 20.0389 41.0972 20.1611 40.5085 20.1611C40.0312 20.1611 39.6255 20.065 39.2927 19.8745C38.96 19.6836 38.6962 19.4221 38.5026 19.088C38.309 18.7525 38.211 18.391 38.211 18.0017C38.211 17.3837 38.4337 16.8642 38.8778 16.4421C39.3219 16.0212 39.8695 15.8095 40.5204 15.8095C40.9699 15.8095 41.4684 15.9265 42.0186 16.1592V16.8128C41.5174 16.5276 41.0296 16.3854 40.5509 16.3854C40.0617 16.3854 39.6547 16.5378 39.3312 16.8456C39.0077 17.1532 38.846 17.5387 38.846 18.0003C38.846 18.4672 39.0051 18.8512 39.3233 19.151C39.6428 19.4507 40.0498 19.6008 40.5456 19.6008C41.064 19.6008 41.5705 19.4431 42.065 19.1273L42.065 19.1274ZM44.0195 17.8066C43.753 17.8066 43.5356 17.8935 43.3645 18.0683C43.1935 18.242 43.1086 18.4628 43.1086 18.7324C43.1086 18.9994 43.1961 19.2177 43.3712 19.386C43.5448 19.5557 43.7702 19.6399 44.0433 19.6399C44.3164 19.6399 44.5391 19.5545 44.7128 19.3834C44.8865 19.2123 44.9727 18.9942 44.9727 18.7259C44.9727 18.4616 44.8825 18.2419 44.7022 18.0683C44.5206 17.8935 44.2939 17.8066 44.0194 17.8066L44.0195 17.8066ZM44.0487 17.3095C44.4757 17.3095 44.831 17.4463 45.1134 17.7212C45.3957 17.9959 45.5363 18.3406 45.5363 18.7562C45.5363 19.1599 45.3931 19.4939 45.1067 19.7609C44.8203 20.0278 44.4597 20.1607 44.0235 20.1607C43.6033 20.1607 43.2519 20.0253 42.9696 19.7543C42.6858 19.4848 42.5453 19.1467 42.5453 18.7417C42.5453 18.3314 42.6872 17.9908 42.9735 17.7185C43.2586 17.4464 43.6178 17.3096 44.0487 17.3096L44.0487 17.3095ZM48.4628 18.0842V20.1134H47.8994V18.5497C47.8994 18.2381 47.8569 18.0211 47.7735 17.8975C47.6899 17.7752 47.5441 17.7133 47.336 17.7133C47.2206 17.7133 47.1132 17.7394 47.0164 17.795C46.9197 17.8501 46.8096 17.9463 46.685 18.0842V20.1135H46.1295V17.3176H46.685V17.6859C46.9687 17.3992 47.2471 17.2545 47.5189 17.2545C47.8756 17.2545 48.1526 17.4267 48.3489 17.7687C48.6458 17.4268 48.9561 17.2545 49.2796 17.2545C49.5527 17.2545 49.7768 17.3544 49.9531 17.5531C50.1294 17.7518 50.2169 18.0555 50.2169 18.4631V20.1136H49.6614V18.4513C49.6614 18.2187 49.6137 18.0397 49.5182 17.9147C49.4227 17.791 49.2849 17.7295 49.1059 17.7295C48.8765 17.7295 48.6618 17.848 48.4629 18.0844L48.4628 18.0842ZM51.9444 17.8377H51.5506V19.5525C51.7216 19.642 51.9006 19.6867 52.0876 19.6867C52.3488 19.6867 52.5609 19.5973 52.728 19.4172C52.8937 19.2372 52.9758 19.0042 52.9758 18.7215C52.9758 18.5389 52.9374 18.3782 52.8578 18.2389C52.7797 18.0995 52.6735 17.9969 52.5383 17.9339C52.4031 17.8694 52.2042 17.8378 51.9444 17.8378V17.8377ZM50.9792 21.5437V17.317H51.955C52.4548 17.317 52.8433 17.4407 53.1217 17.6879C53.4001 17.9351 53.5406 18.2797 53.5406 18.7242C53.5406 19.1437 53.4093 19.487 53.1469 19.7566C52.8857 20.0261 52.5516 20.1603 52.1459 20.1603C51.9669 20.1603 51.768 20.1208 51.5506 20.0421V21.544L50.9792 21.5437ZM55.9382 20.1139V19.7561C55.8189 19.8836 55.6837 19.9835 55.5298 20.0547C55.3774 20.1244 55.2249 20.1598 55.0725 20.1598C54.8935 20.1598 54.7291 20.1166 54.5779 20.0282C54.4281 19.9402 54.3141 19.8206 54.2372 19.6692C54.1603 19.5194 54.1206 19.2681 54.1206 18.9183V17.3165H54.6774V18.9118C54.6774 19.2063 54.7198 19.4115 54.806 19.5272C54.8908 19.6443 55.0406 19.7021 55.2555 19.7021C55.5232 19.7021 55.7513 19.5731 55.9382 19.3154V17.3165H56.4937V20.1137L55.9382 20.1139ZM56.8913 17.7594L57.9413 16.735V17.3175H58.8336V17.8146H57.9413V19.1837C57.9413 19.5031 58.0739 19.6637 58.3417 19.6637C58.5419 19.6637 58.7527 19.5992 58.9755 19.4691V19.9819C58.7607 20.1016 58.5273 20.1609 58.2754 20.1609C58.0195 20.1609 57.8074 20.0874 57.6391 19.9387C57.5876 19.8955 57.543 19.845 57.5065 19.7888C57.4719 19.7322 57.4428 19.6599 57.4203 19.5693C57.3966 19.4798 57.3846 19.3076 57.3846 19.0551V17.8149H56.8914L56.8913 17.7594ZM59.4199 17.3175H59.9753V20.1147H59.4199V17.3175ZM59.6983 16.1445C59.7897 16.1445 59.868 16.1743 59.9329 16.2377C59.9992 16.3007 60.031 16.3771 60.031 16.4692C60.031 16.5571 59.9991 16.6347 59.9329 16.6992C59.8679 16.7637 59.7897 16.7965 59.6983 16.7965C59.6121 16.7965 59.5365 16.7629 59.4715 16.6977C59.4052 16.6321 59.3734 16.5556 59.3734 16.4688C59.3734 16.3834 59.4053 16.3085 59.4715 16.2425C59.5365 16.1769 59.612 16.1441 59.6983 16.1441V16.1445ZM61.3297 17.3171V17.659C61.579 17.3895 61.8614 17.2553 62.1783 17.2553C62.3533 17.2553 62.5177 17.3 62.6688 17.3906C62.82 17.4812 62.9339 17.6049 63.0135 17.7626C63.0917 17.9192 63.1315 18.169 63.1315 18.5109V20.114H62.5747V18.5135C62.5747 18.2254 62.531 18.0204 62.4434 17.8981C62.3559 17.7743 62.2074 17.7128 62.0019 17.7128C61.7381 17.7128 61.514 17.8429 61.3297 18.1021V20.1142H60.7584V17.3169L61.3297 17.3171ZM64.7781 17.7987C64.627 17.7987 64.4984 17.8501 64.3911 17.9512C64.285 18.0526 64.2319 18.1748 64.2319 18.3169C64.2319 18.4615 64.2836 18.58 64.3884 18.6747C64.4931 18.7694 64.6244 18.8168 64.7848 18.8168C64.9412 18.8168 65.0725 18.7683 65.1786 18.6721C65.2833 18.5748 65.3363 18.4552 65.3363 18.3105C65.3363 18.1644 65.2833 18.0421 65.1773 17.9448C65.0712 17.8475 64.9373 17.7987 64.7782 17.7987H64.7781ZM64.6443 20.2487C64.456 20.2487 64.3036 20.2882 64.1842 20.3669C64.0649 20.4459 64.0053 20.5469 64.0053 20.6707C64.0053 20.9574 64.2665 21.1007 64.7875 21.1007C65.0341 21.1007 65.225 21.0634 65.3602 20.993C65.4955 20.9206 65.5631 20.8192 65.5631 20.6877C65.5631 20.5587 65.4782 20.4536 65.3071 20.3708C65.1361 20.2892 64.9148 20.2485 64.6443 20.2485V20.2487ZM63.7308 18.2851C63.7308 17.9865 63.8409 17.7512 64.0596 17.5776C64.2797 17.4038 64.5793 17.317 64.9585 17.317H66.1199V17.7523H65.5511C65.6612 17.8626 65.7381 17.964 65.7818 18.0561C65.8243 18.1467 65.8454 18.2522 65.8454 18.3692C65.8454 18.5154 65.803 18.6585 65.7195 18.7992C65.6359 18.9398 65.5286 19.0479 65.396 19.1228C65.2647 19.1978 65.0486 19.2581 64.7477 19.3029C64.5342 19.3327 64.4281 19.4054 64.4281 19.5187C64.4281 19.5832 64.4666 19.6369 64.5462 19.6779C64.6244 19.72 64.7662 19.7633 64.9731 19.8069C65.3178 19.8833 65.5405 19.9411 65.6399 19.9843C65.7394 20.0265 65.8282 20.0868 65.909 20.1659C66.0443 20.3001 66.112 20.4682 66.112 20.6709C66.112 20.9367 65.9925 21.1482 65.7553 21.3061C65.518 21.4638 65.1999 21.5428 64.8021 21.5428C64.4004 21.5428 64.0795 21.4638 63.8396 21.3046C63.6009 21.1454 63.4803 20.9326 63.4803 20.6641C63.4803 20.2853 63.715 20.0421 64.1843 19.9316C63.9974 19.812 63.9032 19.6934 63.9032 19.5767C63.9032 19.4873 63.943 19.4056 64.0252 19.3333C64.1048 19.2599 64.2148 19.2069 64.3513 19.1715C63.9377 18.9888 63.7309 18.6941 63.7309 18.2851L63.7308 18.2851ZM72.0598 19.1274V19.7954C71.6103 20.0389 71.0919 20.1611 70.5033 20.1611C70.026 20.1611 69.6203 20.065 69.2875 19.8745C68.9546 19.6836 68.6909 19.4221 68.4974 19.088C68.3023 18.7525 68.2069 18.391 68.2069 18.0017C68.2069 17.3837 68.4282 16.8642 68.8725 16.4421C69.3166 16.0212 69.8641 15.8095 70.5151 15.8095C70.9645 15.8095 71.463 15.9265 72.0119 16.1592V16.8128C71.5121 16.5276 71.0242 16.3854 70.5456 16.3854C70.0563 16.3854 69.6493 16.5378 69.3258 16.8456C69.0023 17.1532 68.8407 17.5387 68.8407 18.0003C68.8407 18.4672 68.9996 18.8512 69.3179 19.151C69.6374 19.4507 70.0444 19.6008 70.5403 19.6008C71.0586 19.6008 71.5651 19.4431 72.0596 19.1273L72.0598 19.1274ZM74.014 17.8066C73.7476 17.8066 73.5301 17.8935 73.3591 18.0683C73.1881 18.242 73.1031 18.4628 73.1031 18.7324C73.1031 18.9994 73.1907 19.2177 73.3658 19.386C73.5395 19.5557 73.765 19.6399 74.038 19.6399C74.3112 19.6399 74.5339 19.5545 74.7075 19.3834C74.8812 19.2123 74.9672 18.9942 74.9672 18.7259C74.9672 18.4616 74.877 18.2419 74.6966 18.0683C74.5151 17.8935 74.2883 17.8066 74.0139 17.8066L74.014 17.8066ZM74.0439 17.3095C74.4709 17.3095 74.8261 17.4463 75.1085 17.7212C75.3908 17.9959 75.5315 18.3406 75.5315 18.7562C75.5315 19.1599 75.3883 19.4939 75.1019 19.7609C74.8155 20.0278 74.4549 20.1607 74.0187 20.1607C73.5985 20.1607 73.2471 20.0253 72.9647 19.7543C72.681 19.4848 72.5405 19.1467 72.5405 18.7417C72.5405 18.3314 72.6825 17.9908 72.9687 17.7185C73.2536 17.4464 73.6131 17.3096 74.0439 17.3096V17.3095ZM78.4575 18.0842V20.1134H77.8941V18.5497C77.8941 18.2381 77.8516 18.0211 77.7682 17.8975C77.6847 17.7752 77.5389 17.7133 77.3306 17.7133C77.2153 17.7133 77.1078 17.7394 77.0112 17.795C76.9142 17.8501 76.8045 17.9463 76.6797 18.0842V20.1135H76.1229V17.3176H76.6797V17.6859C76.9635 17.3992 77.2418 17.2545 77.5137 17.2545C77.8703 17.2545 78.1474 17.4267 78.3436 17.7687C78.6405 17.4268 78.9508 17.2545 79.2756 17.2545C79.5473 17.2545 79.7714 17.3544 79.9478 17.5531C80.124 17.7518 80.2116 18.0555 80.2116 18.4631V20.1136H79.6561V18.4513C79.6561 18.2187 79.6084 18.0397 79.513 17.9147C79.4175 17.791 79.2796 17.7295 79.1006 17.7295C78.8714 17.7295 78.6565 17.848 78.4576 18.0844L78.4575 18.0842ZM81.939 17.8377H81.5453V19.5525C81.7163 19.642 81.8952 19.6867 82.0822 19.6867C82.3434 19.6867 82.5555 19.5973 82.7226 19.4172C82.8883 19.2372 82.9706 19.0042 82.9706 18.7215C82.9706 18.5389 82.9323 18.3782 82.8526 18.2389C82.7745 18.0995 82.6685 17.9969 82.5332 17.9339C82.3979 17.8694 82.1991 17.8378 81.9392 17.8378L81.939 17.8377ZM80.9741 21.5437V17.317H81.9498C82.4497 17.317 82.8381 17.4407 83.1178 17.6879C83.3948 17.9351 83.5341 18.2797 83.5341 18.7242C83.5341 19.1437 83.4041 19.487 83.1417 19.7566C82.8805 20.0261 82.5464 20.1603 82.1407 20.1603C81.9618 20.1603 81.7629 20.1208 81.5455 20.0421V21.544L80.9741 21.5437ZM85.396 19.5563V18.7239L85.0236 18.8674C84.8327 18.9424 84.6989 19.0173 84.6206 19.0937C84.5424 19.1701 84.5026 19.2648 84.5026 19.3793C84.5026 19.4948 84.5402 19.5895 84.6153 19.6633C84.6897 19.7356 84.7852 19.7725 84.9043 19.7725C85.0806 19.7725 85.2452 19.7002 85.3962 19.5567L85.396 19.5563ZM85.9437 18.4257V19.6145C85.9437 19.7092 85.9776 19.7566 86.0433 19.7566C86.111 19.7566 86.2158 19.7081 86.3602 19.6093V19.9485C86.2328 20.0276 86.132 20.0813 86.0565 20.1103C85.9795 20.1402 85.9002 20.1536 85.8163 20.1536C85.5792 20.1536 85.4385 20.0615 85.3961 19.8788C85.1574 20.0615 84.9055 20.1536 84.6364 20.1536C84.4387 20.1536 84.2756 20.0891 84.1445 19.9601C84.0119 19.8311 83.9469 19.6693 83.9469 19.4748C83.9469 19.2985 84.0104 19.1408 84.1378 19.0014C84.2663 18.8635 84.4467 18.7528 84.6827 18.6715L85.396 18.4281V18.2782C85.396 17.9375 85.2261 17.7679 84.8882 17.7679C84.5845 17.7679 84.2889 17.923 84.0013 18.2335V17.6325C84.2174 17.3813 84.5289 17.2551 84.9346 17.2551C85.2382 17.2551 85.4821 17.3341 85.6664 17.4918C85.7273 17.5432 85.7818 17.61 85.8307 17.6942C85.8795 17.7785 85.9103 17.8627 85.9235 17.9466C85.9385 18.0308 85.9423 18.19 85.9423 18.4253L85.9437 18.4257ZM87.3944 17.3171V17.659C87.6436 17.3895 87.926 17.2553 88.2429 17.2553C88.418 17.2553 88.5823 17.3 88.7335 17.3906C88.8845 17.4812 88.9984 17.6049 89.0781 17.7626C89.1562 17.9192 89.1961 18.169 89.1961 18.5109V20.114H88.6393V18.5135C88.6393 18.2254 88.5957 18.0204 88.5081 17.8981C88.4206 17.7743 88.2721 17.7128 88.0666 17.7128C87.8028 17.7128 87.5788 17.8429 87.3945 18.1021V20.1142H86.823V17.3169L87.3944 17.3171ZM91.5744 17.3171H92.1961L90.2101 21.5439H89.5883L90.5376 19.5239L89.4544 17.3171H90.0895L90.8425 18.8913L91.5744 17.3171ZM94.3688 18.9797H94.1261V17.395H94.5172L94.9202 18.6614L95.31 17.395H95.6931V18.9797H95.4492V17.6501L95.0409 18.9797H94.8011L94.3689 17.6277L94.3688 18.9797ZM93.4222 18.9797H93.1558V17.6199H92.6374V17.3951H93.946V17.6199H93.4223L93.4222 18.9797Z" fill="#1D2329"/>
</svg>
